<?xml version="1.0" encoding="utf-8"?>
<!-- Generator: Adobe Illustrator 25.1.0, SVG Export Plug-In . SVG Version: 6.00 Build 0)  -->
<svg version="1.1" xmlns="http://www.w3.org/2000/svg" xmlns:xlink="http://www.w3.org/1999/xlink" x="0px" y="0px"
	 viewBox="0 0 752 423" style="enable-background:new 0 0 752 423;" xml:space="preserve">
<style type="text/css">
	.st0{fill:#F2F2F2;}
	.st1{clip-path:url(#SVGID_2_);}
	.st2{fill:#FFFFFF;}
	.st3{fill:#2A555E;}
	.st4{fill:#C10001;}
	.st5{fill:url(#SVGID_3_);}
	.st6{fill:url(#SVGID_4_);}
	.st7{fill:none;stroke:#FFFFFF;stroke-miterlimit:10;}
	.st8{fill:#70ABAF;}
	.st9{fill:#E9E9EB;}
	.st10{fill:#700001;}
	.st11{fill:#FCB72B;}
	.st12{fill:#313236;}
	.st13{fill:#FDD828;}
	.st14{clip-path:url(#SVGID_2_);fill:#700001;}
	.st15{clip-path:url(#SVGID_2_);fill:#C10001;}
	.st16{clip-path:url(#SVGID_2_);fill:#2A555E;}
	.st17{clip-path:url(#SVGID_2_);fill:#FFFFFF;}
</style>
<g id="BACKGROUND">
	<rect transform="matrix(-1 -1.224647e-16 1.224647e-16 -1 752 423.1059)" class="st0" width="752" height="423.11"/>
</g>
<g id="OBJECTS">
	<g>
		<defs>
			<rect id="SVGID_1_" transform="matrix(-1 -1.224647e-16 1.224647e-16 -1 752 423.1059)" width="752" height="423.11"/>
		</defs>
		<clipPath id="SVGID_2_">
			<use xlink:href="#SVGID_1_"  style="overflow:visible;"/>
		</clipPath>
		<g class="st1">
			<g>
				<g>
					<path class="st2" d="M707.18,319.33l23.69,213.45c0.02,0.14-0.04,0.27-0.16,0.34c-0.12,0.07-0.27,0.07-0.42,0L582.4,460.61
						c-0.14-0.07-0.25-0.19-0.29-0.33c-0.05-0.14-0.02-0.28,0.06-0.37l124.2-140.94c0.11-0.12,0.3-0.15,0.48-0.07
						c0.02,0.01,0.04,0.02,0.07,0.03C707.06,319.02,707.16,319.18,707.18,319.33z M729.9,532.04l-23.49-211.65L583.26,460.14
						L729.9,532.04z"/>
				</g>
				<g>
					<path class="st2" d="M706.93,318.95c0.23,0.14,0.33,0.41,0.23,0.6c-0.03,0.06-0.08,0.11-0.13,0.14L582.9,460.55
						c-0.11,0.12-0.29,0.15-0.47,0.08L526.12,437c-0.16-0.07-0.29-0.21-0.33-0.37c-0.04-0.16,0.01-0.31,0.14-0.4l180.52-117.32
						c0.13-0.09,0.32-0.07,0.48,0.02C706.92,318.94,706.93,318.94,706.93,318.95z M582.34,459.71L704.05,321.6L527.16,436.56
						L582.34,459.71z"/>
				</g>
				<g>
					<path class="st2" d="M808.9,385.19c0.12,0.12,0.18,0.27,0.16,0.41L785.91,545.3c-0.03,0.21-0.23,0.33-0.46,0.28l-55.05-12.42
						c-0.22-0.05-0.41-0.25-0.43-0.46l-15.13-136.33c-0.02-0.2,0.1-0.36,0.3-0.39l93.32-10.94c0.11-0.01,0.22,0.02,0.32,0.08
						C808.83,385.13,808.86,385.15,808.9,385.19z M730.83,532.4l54.25,12.24l23-158.67l-92.3,10.82L730.83,532.4z"/>
				</g>
				<g>
					<path class="st2" d="M854.72,376.47c0.23,0.14,0.33,0.41,0.23,0.6c-0.06,0.13-0.2,0.19-0.34,0.18l-45.86,8.63l-93.32,10.94
						c-0.23,0.03-0.48-0.14-0.56-0.38c-0.08-0.24,0.04-0.45,0.27-0.48l139.23-19.59c0.11-0.02,0.23,0.01,0.33,0.08
						C854.71,376.46,854.72,376.47,854.72,376.47z M808.44,385.03l26.97-5.08l-81.75,11.5L808.44,385.03z"/>
				</g>
				<g>
					<path class="st2" d="M718.1,418.07l74.22,138.48c0.08,0.15,0.08,0.32-0.01,0.44c-0.09,0.12-0.25,0.16-0.42,0.11L651.8,517.47
						c-0.15-0.04-0.29-0.16-0.36-0.3c-0.07-0.14-0.07-0.29,0.01-0.4l65.87-98.85c0.08-0.12,0.23-0.17,0.39-0.14
						c0.06,0.01,0.12,0.04,0.18,0.07C717.98,417.9,718.05,417.98,718.1,418.07z M791.13,556.02l-73.41-136.95l-65.15,97.76
						L791.13,556.02z"/>
				</g>
				<g>
					<path class="st2" d="M717.91,417.86c0.23,0.14,0.33,0.41,0.23,0.6c-0.02,0.05-0.06,0.09-0.1,0.11l-65.81,98.76
						c-0.09,0.14-0.29,0.19-0.48,0.11l-39.84-15.5c-0.15-0.06-0.29-0.2-0.34-0.36c-0.05-0.16-0.01-0.31,0.1-0.4l105.71-83.34
						c0.13-0.1,0.33-0.1,0.5,0C717.9,417.85,717.9,417.86,717.91,417.86z M651.61,516.53l64.02-96.07l-102.74,81L651.61,516.53z"/>
				</g>
				<g>
					<path class="st2" d="M728.72,261.79l152.04,98.79c0.14,0.09,0.23,0.23,0.25,0.38c0.02,0.15-0.04,0.28-0.15,0.35l-26.05,15.89
						c-0.04,0.03-0.09,0.04-0.14,0.05l-139.23,19.59c-0.13,0.02-0.27-0.02-0.39-0.12c-0.12-0.09-0.19-0.22-0.21-0.36l-8.56-77.11
						c-0.01-0.06,0-0.12,0.02-0.18l21.8-57.16c0.04-0.11,0.13-0.18,0.25-0.21c0.11-0.02,0.24,0,0.35,0.07
						C728.72,261.78,728.72,261.78,728.72,261.79z M715.68,395.9l138.62-19.5l25.46-15.53l-150.96-98.09l-21.6,56.65L715.68,395.9z"
						/>
				</g>
				<g>
					<path class="st2" d="M728.72,261.79l152.04,98.79c0.14,0.09,0.23,0.23,0.25,0.38c0.02,0.15-0.04,0.28-0.15,0.35l-26.05,15.89
						c-0.1,0.06-0.24,0.07-0.38,0.02L790.7,352.4c-0.1-0.04-0.2-0.12-0.27-0.21l-62.25-89.87c-0.13-0.18-0.12-0.4,0.01-0.52
						c0.13-0.12,0.34-0.13,0.53-0.02C728.72,261.78,728.72,261.78,728.72,261.79z M854.4,376.33l25.35-15.47l-149.75-97.3
						l61.03,88.11L854.4,376.33z"/>
				</g>
				<g>
					<path class="st2" d="M525.23,290.52l102.85,79.72c0.12,0.09,0.2,0.23,0.21,0.37c0.01,0.14-0.04,0.26-0.15,0.33l-101.62,66.04
						c-0.13,0.08-0.32,0.08-0.48-0.02c0,0,0,0,0,0c-0.16-0.1-0.26-0.27-0.27-0.44l-1.22-145.77c0-0.15,0.09-0.28,0.23-0.33
						c0.12-0.04,0.27-0.02,0.4,0.06C525.19,290.5,525.21,290.51,525.23,290.52z M627.09,370.48l-101.65-78.79l1.21,144.06
						L627.09,370.48z"/>
				</g>
				<g>
					<path class="st2" d="M525.42,290.79l39.9,120.63c0.06,0.17,0.01,0.34-0.13,0.43l-38.68,25.13c-0.13,0.08-0.32,0.08-0.48-0.02
						c0,0,0,0,0,0c-0.16-0.1-0.26-0.27-0.27-0.44l-1.22-145.77c0-0.21,0.16-0.36,0.37-0.35c0.09,0,0.17,0.03,0.25,0.08
						C525.29,290.55,525.38,290.66,525.42,290.79z M564.38,411.24l-38.91-117.65l1.19,142.16L564.38,411.24z"/>
				</g>
				<g>
					<path class="st2" d="M911.74,288.24c0.09,0.13,0.11,0.29,0.06,0.41l-30.8,72.5c-0.04,0.1-0.14,0.17-0.25,0.2
						c-0.12,0.02-0.25,0-0.36-0.08l-152.04-98.79c-0.18-0.12-0.29-0.33-0.25-0.51c0.04-0.18,0.21-0.29,0.41-0.26l182.85,26.28
						c0.07,0.01,0.14,0.04,0.2,0.07C911.63,288.11,911.69,288.16,911.74,288.24z M880.33,360.29l30.39-71.54L730.3,262.81
						L880.33,360.29z"/>
				</g>
				<g>
					<path class="st2" d="M706.93,318.95c0.23,0.14,0.33,0.41,0.23,0.6c-0.04,0.09-0.12,0.14-0.21,0.17l-78.81,51.22
						c-0.15,0.1-0.37,0.07-0.53-0.06l-102.85-79.72c-0.17-0.13-0.25-0.34-0.2-0.51c0.05-0.17,0.22-0.27,0.41-0.24l181.74,28.45
						c0.07,0.01,0.14,0.04,0.2,0.07C706.92,318.94,706.93,318.94,706.93,318.95z M627.79,370.03l77.71-50.51L526.49,291.5
						L627.79,370.03z"/>
				</g>
				<g>
					<path class="st2" d="M808.9,385.19c0.12,0.12,0.18,0.27,0.16,0.41l-6.48,44.74c-0.02,0.11-0.08,0.2-0.18,0.25
						c-0.1,0.05-0.23,0.05-0.35,0l-86.83-33.8c-0.19-0.08-0.35-0.27-0.36-0.46c-0.01-0.19,0.11-0.35,0.3-0.37l93.32-10.94
						c0.11-0.01,0.22,0.02,0.32,0.08C808.83,385.13,808.86,385.15,808.9,385.19z M801.75,429.62l6.33-43.65l-91.04,10.68
						L801.75,429.62z"/>
				</g>
				<g>
					<path class="st2" d="M728.89,261.94l62.25,89.87c0.15,0.21,0.11,0.46-0.07,0.57l-22.65,13.32c-0.11,0.07-0.26,0.07-0.4,0.01
						c-0.14-0.06-0.25-0.18-0.3-0.32l-39.6-103.19c-0.08-0.21,0-0.42,0.2-0.49c0.13-0.04,0.27-0.02,0.4,0.06
						C728.78,261.82,728.84,261.88,728.89,261.94z M790.17,351.81l-60.04-86.67l38.19,99.52L790.17,351.81z"/>
				</g>
			</g>
		</g>
		<g class="st1">
			<g>
				<path class="st2" d="M-170.94-26.92c0.02-0.18,0.15-0.34,0.33-0.44l189.37-97.3c0.17-0.09,0.38-0.1,0.55-0.04
					c0.17,0.07,0.29,0.21,0.32,0.37l41.46,248.81c0.04,0.22-0.08,0.44-0.3,0.56c-0.22,0.12-0.49,0.12-0.68-0.01L-170.72-26.47
					c-0.07-0.05-0.12-0.1-0.16-0.17C-170.93-26.73-170.95-26.83-170.94-26.92z M18.55-123.37l-187.79,96.49l228.9,150.25
					L18.55-123.37z"/>
			</g>
		</g>
		<g class="st1">
			<g>
				<path class="st2" d="M59.89,124.71L18.43-124.09c-0.04-0.21,0.08-0.43,0.29-0.55L86.86-165c0.19-0.12,0.44-0.13,0.63-0.04
					c0.19,0.09,0.3,0.27,0.28,0.47L61.09,124.6c-0.03,0.27-0.28,0.5-0.58,0.53c-0.25,0.02-0.46-0.08-0.57-0.26
					C59.91,124.82,59.89,124.77,59.89,124.71z M19.68-123.98l40.63,243.86l26.16-283.41L19.68-123.98z"/>
			</g>
		</g>
		<g class="st1">
			<g>
				<g>
					<path class="st2" d="M98.14-118.79c0.11-0.16,0.31-0.25,0.54-0.21l187.89,29.37c0.2,0.03,0.38,0.15,0.48,0.32
						c0.1,0.17,0.11,0.37,0.02,0.52l-78.71,137.8c-0.09,0.16-0.28,0.26-0.49,0.24c-0.21-0.01-0.41-0.13-0.53-0.31L98.16-118.22
						c-0.09-0.14-0.12-0.31-0.07-0.45C98.1-118.72,98.11-118.76,98.14-118.79z M285.61-88.69L99.77-117.74L207.75,47.6L285.61-88.69
						z"/>
				</g>
				<g>
					<path class="st2" d="M207.3,48.4l78.71-137.8c0.11-0.2,0.36-0.29,0.61-0.22L340.4-75.8c0.21,0.06,0.39,0.21,0.47,0.41
						c0.07,0.19,0.03,0.4-0.11,0.53L208.27,49.12c-0.19,0.18-0.52,0.18-0.77,0c-0.21-0.16-0.31-0.41-0.24-0.63
						C207.27,48.46,207.28,48.43,207.3,48.4z M286.88-88.46L210.35,45.52L339.16-75.02L286.88-88.46z"/>
				</g>
			</g>
		</g>
		<g class="st1">
			<g>
				<path class="st2" d="M59.88,124.6L71.55-1.78c0.02-0.23,0.21-0.44,0.47-0.51l49.81-13.45c0.22-0.06,0.45-0.01,0.59,0.13
					c0.14,0.14,0.18,0.35,0.1,0.54L61.05,124.75c-0.11,0.25-0.41,0.41-0.7,0.37c-0.18-0.03-0.33-0.13-0.41-0.26
					C59.89,124.78,59.87,124.69,59.88,124.6z M72.71-1.39l-11.3,122.43l59.55-135.46L72.71-1.39z"/>
			</g>
		</g>
		<g class="st1">
			<g>
				<g>
					<path class="st2" d="M401.85,582.26c-0.13,0.13-0.33,0.18-0.53,0.15l-209.45-38.17c-0.19-0.04-0.36-0.15-0.46-0.31
						c-0.1-0.16-0.11-0.34-0.03-0.49l118.67-222.58c0.1-0.19,0.33-0.3,0.58-0.26c0.25,0.04,0.46,0.2,0.54,0.42l90.78,260.75
						c0.03,0.08,0.03,0.16,0.02,0.23C401.97,582.1,401.93,582.19,401.85,582.26z M192.83,543.33l207.71,37.86L310.51,322.6
						L192.83,543.33z"/>
				</g>
				<g>
					<path class="st2" d="M311.15,321.4L192.48,543.98c-0.1,0.19-0.32,0.29-0.56,0.26l-78.62-9.51c-0.22-0.03-0.43-0.16-0.52-0.35
						c-0.1-0.19-0.07-0.4,0.06-0.55l197.3-213.07c0.19-0.2,0.52-0.23,0.78-0.06c0.21,0.13,0.32,0.35,0.29,0.55
						C311.2,321.3,311.18,321.35,311.15,321.4z M191.56,543.13l116.31-218.16L114.49,533.81L191.56,543.13z"/>
				</g>
				<g>
					<path class="st2" d="M311.09,321.5l-86.23,93.12c-0.16,0.17-0.43,0.22-0.68,0.12l-47.69-19.67c-0.21-0.09-0.36-0.27-0.39-0.47
						c-0.03-0.2,0.06-0.39,0.24-0.49l133.92-73.45c0.24-0.13,0.57-0.07,0.78,0.13c0.13,0.13,0.19,0.3,0.16,0.46
						C311.19,321.34,311.15,321.43,311.09,321.5z M224.17,413.6l83.54-90.22l-129.74,71.16L224.17,413.6z"/>
				</g>
			</g>
		</g>
		<g class="st1">
			<polygon class="st3" points="524.03,-9.27 577.08,134.71 673.27,-21.88 			"/>
			<polygon class="st4" points="577.08,134.71 468.63,-7.52 524.03,-9.27 			"/>
			
				<linearGradient id="SVGID_3_" gradientUnits="userSpaceOnUse" x1="-1168.1449" y1="1614.9515" x2="-1146.1274" y2="1614.9515" gradientTransform="matrix(0.1909 -0.9224 -1.1883 0.011 2843.2285 -961.5335)">
				<stop  offset="0.1097" style="stop-color:#E695AA"/>
				<stop  offset="0.4272" style="stop-color:#E07891"/>
				<stop  offset="0.7782" style="stop-color:#DB5F7B"/>
				<stop  offset="0.9888" style="stop-color:#D95573"/>
			</linearGradient>
			<line class="st5" x1="685.7" y1="113.6" x2="720.87" y2="133.55"/>
			
				<linearGradient id="SVGID_4_" gradientUnits="userSpaceOnUse" x1="-1106.8652" y1="1699.9884" x2="-1106.8652" y2="1699.9884" gradientTransform="matrix(0.1909 -0.9224 -1.1883 0.011 2843.2285 -961.5335)">
				<stop  offset="0.1097" style="stop-color:#E695AA"/>
				<stop  offset="0.4272" style="stop-color:#E07891"/>
				<stop  offset="0.7782" style="stop-color:#DB5F7B"/>
				<stop  offset="0.9888" style="stop-color:#D95573"/>
			</linearGradient>
			<path class="st6" d="M611.83,78.14"/>
			<line class="st7" x1="529.68" y1="72.55" x2="418.77" y2="102.83"/>
			<path class="st7" d="M468.63-7.52"/>
			<path class="st7" d="M415.4,103.75"/>
			<path class="st7" d="M468.63-7.52"/>
			<path class="st7" d="M491.87,22.95"/>
			<path class="st7" d="M577.08,134.71"/>
			<path class="st7" d="M529.68,72.55"/>
			<polygon class="st8" points="434.58,63.66 340.16,-3.32 488.03,-46 			"/>
		</g>
		<g class="st1">
			<polygon class="st3" points="-18.13,241.55 56.01,249.26 21.11,345.92 -21.87,257.19 			"/>
			<polygon class="st9" points="-9.33,283.08 56.01,249.26 -18.13,241.55 -21.87,257.19 			"/>
			<polygon class="st4" points="56.01,249.26 -9.51,205.47 -18.13,241.55 			"/>
			<polygon class="st8" points="82.15,433.51 132.73,363.25 174.29,463.88 			"/>
			<polygon class="st3" points="132.73,363.25 139.22,452.32 174.29,463.88 			"/>
			<polygon class="st10" points="10.63,409.94 132.73,363.25 82.15,433.51 			"/>
			<polygon class="st8" points="-9.41,323.1 51.91,357.72 -18.07,446.67 			"/>
			<polygon class="st10" points="-10.51,281.41 51.91,357.72 -9.41,323.1 			"/>
			<polygon class="st3" points="-39.19,453.27 31.97,373 61.4,464.18 			"/>
			<polygon class="st4" points="31.97,373 90.64,464.18 61.4,464.18 			"/>
		</g>
		<g class="st1">
			<polygon class="st2" points="410.43,480.92 573.87,416.26 493.51,579.31 			"/>
			<polygon class="st9" points="623.58,495.87 544.84,475.16 493.51,579.31 531.2,605.3 			"/>
			<polygon class="st11" points="658.08,462.19 544.84,475.16 623.58,495.87 			"/>
			<polygon class="st12" points="530.95,615.7 536.63,491.82 438.76,543.7 			"/>
			<polygon class="st13" points="536.63,491.82 414.52,520.13 438.76,543.7 			"/>
			<polygon class="st3" points="671.04,454.86 617.61,387.25 573.87,422.26 544.84,481.16 658.08,468.19 			"/>
			<polygon class="st9" points="625.03,471.98 617.61,387.25 671.04,454.86 658.08,468.19 			"/>
			<polygon class="st8" points="501.8,437.41 457.62,347.61 390.94,454.36 			"/>
			<polygon class="st3" points="457.62,347.61 433.13,447.91 390.94,454.36 			"/>
			<polygon class="st4" points="617.61,387.25 700.92,424.1 671.04,454.86 			"/>
			<polygon class="st10" points="587.87,424.26 457.62,347.61 501.8,437.41 			"/>
		</g>
		<g class="st1">
			<polygon class="st3" points="834.81,181.31 652.13,99.09 845.27,36.54 			"/>
			<polygon class="st4" points="652.13,99.09 834.81,233.71 834.81,181.08 			"/>
			<polygon class="st9" points="677.21,-2.69 721.91,76.49 845.27,36.54 836.75,-13.87 			"/>
			<polygon class="st3" points="665.38,-4.1 763.91,76.49 719.21,-2.69 			"/>
			<polygon class="st3" points="845.27,-21.77 741.64,70.1 859.37,108.1 			"/>
			<polygon class="st2" points="741.64,70.1 859.37,145.86 859.37,108.1 			"/>
			<polygon class="st10" points="644.62,-4.1 632.06,91.31 763.91,76.49 665.38,-4.1 			"/>
			<polygon class="st9" points="694.13,19.42 632.06,91.31 644.62,-4.1 665.38,-4.1 			"/>
			<polygon class="st9" points="730.1,156.55 692.13,263.07 833.36,232.55 			"/>
			<polygon class="st10" points="692.13,263.07 793.63,203.37 833.36,232.55 			"/>
			<polygon class="st8" points="632.06,91.31 596.73,-4.1 644.62,-4.1 			"/>
			<polygon class="st2" points="632.06,91.31 715.07,36.54 694.13,19.42 			"/>
			<polygon class="st12" points="741.64,252.37 836.75,332.33 836.75,231.82 			"/>
		</g>
		<polyline class="st14" points="659.48,256.49 634.61,251.09 642.38,274.17 		"/>
		<polygon class="st14" points="658.25,273.2 661.62,297.32 681.69,283.1 		"/>
		<polygon class="st15" points="180.75,320.58 175.84,303.11 163.08,318.4 		"/>
		<polygon class="st16" points="145.84,68.78 162.21,87.76 138.31,91.31 		"/>
		<polygon class="st16" points="95.38,153.64 93.59,128.64 114.88,140.07 		"/>
		<path class="st15" d="M637.36,334.69"/>
		<path class="st15" d="M647.3,322.6"/>
		<polygon class="st17" points="14.57,130.15 22.83,138.82 10.75,139.83 		"/>
		<line class="st17" x1="647.28" y1="284.15" x2="657.03" y2="276.95"/>
		<polygon class="st15" points="117.59,286.73 107.71,271.51 100.07,289.9 		"/>
		<polygon class="st16" points="115.5,94.48 136.58,108.04 114.66,118.22 		"/>
		<polygon class="st17" points="72.98,140.01 83.27,146.14 71.91,150.37 		"/>
		<polygon class="st17" points="53.28,138.42 63.58,144.55 52.21,148.78 		"/>
		<polygon class="st15" points="132.01,300.76 150.08,302.38 140.33,285.02 		"/>
		<polygon class="st16" points="89.46,193.5 80.33,170.16 104.06,174.76 		"/>
		<polygon class="st17" points="32.71,145.01 35.25,133.3 47.08,141.79 		"/>
	</g>
	<polyline class="st10" points="607.74,232.37 617.23,255.98 631.97,236.6 	"/>
	<line class="st7" x1="418.77" y1="102.83" x2="495.66" y2="27.92"/>
	<polyline class="st7" points="558.75,110.66 418.77,102.83 434.58,63.66 	"/>
</g>
</svg>
