<?xml version="1.0" encoding="UTF-8" standalone="no"?>
<!DOCTYPE svg PUBLIC "-//W3C//DTD SVG 1.1//EN" "http://www.w3.org/Graphics/SVG/1.1/DTD/svg11.dtd">
<svg version="1.1" xmlns="http://www.w3.org/2000/svg" xmlns:xlink="http://www.w3.org/1999/xlink" preserveAspectRatio="xMidYMid meet" viewBox="0 0 800 470" width="800" height="470"><defs><path d="M159.91 92.88L167.11 26.69L376.55 6.7L632.7 468.15L69.61 415.41L23.47 217.95L91.72 183.68L159.91 92.88Z" id="c1YK7TX465"></path><path d="M22.38 219.42L34.96 147.11L103.99 55.19L167.11 26.69" id="b2dsNKV5y0"></path><path d="M376.55 6.7L351.56 132.48L191.11 346.13L69.61 415.41" id="afJR8ynQf"></path><path d="M158.09 93.63L351.64 132.54L632.27 468.73L191.19 346.2L89.24 185.31" id="ciuAAjxOL"></path><path d="M497.37 -170.53L564.16 -200.96L679 -195.86L738.16 -159.84" id="b6E0rZIhix"></path><path d="M872.87 1.77L754.94 52.13L488.01 40.27L362.24 -20.92" id="aIz4YpwAC"></path><path d="M677.81 -129.5L754.93 52.23L635.81 473.64L488 40.38L563.27 -134.59" id="a2KmUkfZ0F"></path><path d="M872.87 0L632.7 473.64" id="c1rnpMvVMd"></path></defs><g><g><g><use xlink:href="#c1YK7TX465" opacity="1" fill="#000000" fill-opacity="0"></use><g><use xlink:href="#c1YK7TX465" opacity="1" fill-opacity="0" stroke="#70abaf" stroke-width="1" stroke-opacity="0.5"></use></g></g><g><use xlink:href="#b2dsNKV5y0" opacity="1" fill="#000000" fill-opacity="0"></use><g><use xlink:href="#b2dsNKV5y0" opacity="1" fill-opacity="0" stroke="#70abaf" stroke-width="1" stroke-opacity="0.5"></use></g></g><g><use xlink:href="#afJR8ynQf" opacity="1" fill="#000000" fill-opacity="0"></use><g><use xlink:href="#afJR8ynQf" opacity="1" fill-opacity="0" stroke="#70abaf" stroke-width="1" stroke-opacity="0.5"></use></g></g><g><use xlink:href="#ciuAAjxOL" opacity="1" fill="#000000" fill-opacity="0"></use><g><use xlink:href="#ciuAAjxOL" opacity="1" fill-opacity="0" stroke="#70abaf" stroke-width="1" stroke-opacity="0.5"></use></g></g><g><use xlink:href="#b6E0rZIhix" opacity="1" fill="#000000" fill-opacity="0"></use><g><use xlink:href="#b6E0rZIhix" opacity="1" fill-opacity="0" stroke="#70abaf" stroke-width="1" stroke-opacity="0.5"></use></g></g><g><use xlink:href="#aIz4YpwAC" opacity="1" fill="#000000" fill-opacity="0"></use><g><use xlink:href="#aIz4YpwAC" opacity="1" fill-opacity="0" stroke="#70abaf" stroke-width="1" stroke-opacity="0.5"></use></g></g><g><use xlink:href="#a2KmUkfZ0F" opacity="1" fill="#000000" fill-opacity="0"></use><g><use xlink:href="#a2KmUkfZ0F" opacity="1" fill-opacity="0" stroke="#70abaf" stroke-width="1" stroke-opacity="0.5"></use></g></g><g><g><use xlink:href="#c1rnpMvVMd" opacity="1" fill-opacity="0" stroke="#70abaf" stroke-width="1" stroke-opacity="1"></use></g></g></g></g></svg>