<?xml version="1.0" encoding="UTF-8" standalone="no"?>
<!DOCTYPE svg PUBLIC "-//W3C//DTD SVG 1.1//EN" "http://www.w3.org/Graphics/SVG/1.1/DTD/svg11.dtd">
<svg version="1.1" xmlns="http://www.w3.org/2000/svg" xmlns:xlink="http://www.w3.org/1999/xlink" preserveAspectRatio="xMidYMid meet" viewBox="0 0 640 358" width="640" height="358"><defs><path d="M128.36 56.02L277.38 41.8L459.64 370.13L58.99 332.61L26.16 192.11L74.72 167.72L123.24 103.12L128.36 56.02Z" id="a2WQxrsqw7"></path><path d="M128.36 56.02L277.38 41.8L459.64 370.13L58.99 332.61L26.16 192.11L74.72 167.72L123.24 103.12L128.36 56.02Z" id="aAG603sDO"></path><path d="M25.38 193.15L34.33 141.7L83.45 76.3L128.36 56.02" id="fbfw9jB9X"></path><path d="M25.38 193.15L34.33 141.7L83.45 76.3L128.36 56.02" id="d1E1LSVVg"></path><path d="M277.38 41.8L259.6 131.29L145.44 283.31L58.99 332.61" id="aVss90vKa"></path><path d="M277.38 41.8L259.6 131.29L145.44 283.31L58.99 332.61" id="d4tkYT1TA5"></path><path d="M121.94 103.65L259.66 131.34L459.34 370.55L145.49 283.36L72.95 168.88" id="bNtgpFVmu"></path><path d="M121.94 103.65L259.66 131.34L459.34 370.55L145.49 283.36L72.95 168.88" id="b3VUF3QzlY"></path><path d="M363.35 -84.31L410.87 -105.96L492.59 -102.33L534.68 -76.7" id="a4TOZrwIcf"></path><path d="M363.35 -84.31L410.87 -105.96L492.59 -102.33L534.68 -76.7" id="d7W0K1qS8r"></path><path d="M630.53 38.29L546.62 74.12L356.69 65.68L267.2 22.14" id="gcGsUGAYW"></path><path d="M630.53 38.29L546.62 74.12L356.69 65.68L267.2 22.14" id="a4KvkSHVc"></path><path d="M491.74 -55.11L546.61 74.19L461.85 374.04L356.68 65.76L410.24 -58.74" id="e5wbaMvZa"></path><path d="M491.74 -55.11L546.61 74.19L461.85 374.04L356.68 65.76L410.24 -58.74" id="gPyf65rHL"></path><path d="M267.2 22.14L363.35 -79.31L534.68 -76.7L630.53 37.03L459.64 374.04" id="b2vTrD6iGu"></path></defs><g><g><g><use xlink:href="#a2WQxrsqw7" opacity="1" fill="#000000" fill-opacity="0"></use><g><use xlink:href="#a2WQxrsqw7" opacity="1" fill-opacity="0" stroke="#000000" stroke-width="1" stroke-opacity="0"></use></g></g><g><use xlink:href="#aAG603sDO" opacity="1" fill="#000000" fill-opacity="0"></use><g><use xlink:href="#aAG603sDO" opacity="1" fill-opacity="0" stroke="#70abaf" stroke-width="1" stroke-opacity="0.3"></use></g></g><g><use xlink:href="#fbfw9jB9X" opacity="1" fill="#000000" fill-opacity="0"></use><g><use xlink:href="#fbfw9jB9X" opacity="1" fill-opacity="0" stroke="#000000" stroke-width="1" stroke-opacity="0"></use></g></g><g><use xlink:href="#d1E1LSVVg" opacity="1" fill="#000000" fill-opacity="0"></use><g><use xlink:href="#d1E1LSVVg" opacity="1" fill-opacity="0" stroke="#70abaf" stroke-width="1" stroke-opacity="0.3"></use></g></g><g><use xlink:href="#aVss90vKa" opacity="1" fill="#000000" fill-opacity="0"></use><g><use xlink:href="#aVss90vKa" opacity="1" fill-opacity="0" stroke="#000000" stroke-width="1" stroke-opacity="0"></use></g></g><g><use xlink:href="#d4tkYT1TA5" opacity="1" fill="#000000" fill-opacity="0"></use><g><use xlink:href="#d4tkYT1TA5" opacity="1" fill-opacity="0" stroke="#70abaf" stroke-width="1" stroke-opacity="0.3"></use></g></g><g><use xlink:href="#bNtgpFVmu" opacity="1" fill="#000000" fill-opacity="0"></use><g><use xlink:href="#bNtgpFVmu" opacity="1" fill-opacity="0" stroke="#000000" stroke-width="1" stroke-opacity="0"></use></g></g><g><use xlink:href="#b3VUF3QzlY" opacity="1" fill="#000000" fill-opacity="0"></use><g><use xlink:href="#b3VUF3QzlY" opacity="1" fill-opacity="0" stroke="#70abaf" stroke-width="1" stroke-opacity="0.3"></use></g></g><g><use xlink:href="#a4TOZrwIcf" opacity="1" fill="#000000" fill-opacity="0"></use><g><use xlink:href="#a4TOZrwIcf" opacity="1" fill-opacity="0" stroke="#000000" stroke-width="1" stroke-opacity="0"></use></g></g><g><use xlink:href="#d7W0K1qS8r" opacity="1" fill="#000000" fill-opacity="0"></use><g><use xlink:href="#d7W0K1qS8r" opacity="1" fill-opacity="0" stroke="#70abaf" stroke-width="1" stroke-opacity="0.5"></use></g></g><g><use xlink:href="#gcGsUGAYW" opacity="1" fill="#000000" fill-opacity="0"></use><g><use xlink:href="#gcGsUGAYW" opacity="1" fill-opacity="0" stroke="#000000" stroke-width="1" stroke-opacity="0"></use></g></g><g><use xlink:href="#a4KvkSHVc" opacity="1" fill="#000000" fill-opacity="0"></use><g><use xlink:href="#a4KvkSHVc" opacity="1" fill-opacity="0" stroke="#70abaf" stroke-width="1" stroke-opacity="0.3"></use></g></g><g><use xlink:href="#e5wbaMvZa" opacity="1" fill="#000000" fill-opacity="0"></use><g><use xlink:href="#e5wbaMvZa" opacity="1" fill-opacity="0" stroke="#000000" stroke-width="1" stroke-opacity="0"></use></g></g><g><use xlink:href="#gPyf65rHL" opacity="1" fill="#000000" fill-opacity="0"></use><g><use xlink:href="#gPyf65rHL" opacity="1" fill-opacity="0" stroke="#70abaf" stroke-width="1" stroke-opacity="0.3"></use></g></g><g><use xlink:href="#b2vTrD6iGu" opacity="1" fill="#000000" fill-opacity="0"></use><g><use xlink:href="#b2vTrD6iGu" opacity="1" fill-opacity="0" stroke="#70abaf" stroke-width="1" stroke-opacity="0.3"></use></g></g></g></g></svg>