<?xml version="1.0" encoding="UTF-8" standalone="no"?>
<!DOCTYPE svg PUBLIC "-//W3C//DTD SVG 1.1//EN" "http://www.w3.org/Graphics/SVG/1.1/DTD/svg11.dtd">
<svg version="1.1" xmlns="http://www.w3.org/2000/svg" xmlns:xlink="http://www.w3.org/1999/xlink" preserveAspectRatio="xMidYMid meet" viewBox="0 0 640 358" width="640" height="358"><defs><path d="M128.36 56.02L277.38 41.8L459.64 370.13L58.99 332.61L26.16 192.11L74.72 167.72L123.24 103.12L128.36 56.02Z" id="bazyfVHW2"></path><path d="M128.36 56.02L277.38 41.8L459.64 370.13L58.99 332.61L26.16 192.11L74.72 167.72L123.24 103.12L128.36 56.02Z" id="dTAEdYhyj"></path><path d="M25.38 193.15L34.33 141.7L83.45 76.3L128.36 56.02" id="fbfw9jB9X"></path><path d="M25.38 193.15L34.33 141.7L83.45 76.3L128.36 56.02" id="d1E1LSVVg"></path><path d="M277.38 41.8L259.6 131.29L145.44 283.31L58.99 332.61" id="aVss90vKa"></path><path d="M277.38 41.8L259.6 131.29L145.44 283.31L58.99 332.61" id="d4tkYT1TA5"></path><path d="M121.94 103.65L259.66 131.34L459.34 370.55L145.49 283.36L72.95 168.88" id="e1Q1b05urV"></path><path d="M121.94 103.65L259.66 131.34L459.34 370.55L145.49 283.36L72.95 168.88" id="e7ecBdn7s"></path><path d="M373.93 -110.87L426.66 -135.03L517.41 -131.2L564.22 -102.84" id="c4IyapW7N5"></path><path d="M670.94 24.63L577.84 64.63L366.9 55.72L267.42 7.58" id="bdNfpDKrj"></path><path d="M670.94 24.63L577.84 64.63L366.9 55.72L267.42 7.58" id="eaTmd21jc"></path><path d="M516.58 -78.76L577.83 64.71L484.43 397.9L366.89 55.8L426.07 -82.58" id="l42oOnphcr"></path><path d="M516.58 -78.76L577.83 64.71L484.43 397.9L366.89 55.8L426.07 -82.58" id="ajBKCnUNN"></path><path d="M267.42 7.58L373.95 -105.32L564.22 -102.84L670.94 23.23L481.98 397.9L267.42 7.58Z" id="a23ZWnx8je"></path></defs><g><g><g><use xlink:href="#bazyfVHW2" opacity="1" fill="#000000" fill-opacity="0"></use><g><use xlink:href="#bazyfVHW2" opacity="1" fill-opacity="0" stroke="#000000" stroke-width="1" stroke-opacity="0"></use></g></g><g><use xlink:href="#dTAEdYhyj" opacity="1" fill="#000000" fill-opacity="0"></use><g><use xlink:href="#dTAEdYhyj" opacity="1" fill-opacity="0" stroke="#70abaf" stroke-width="1" stroke-opacity="0.3"></use></g></g><g><use xlink:href="#fbfw9jB9X" opacity="1" fill="#000000" fill-opacity="0"></use><g><use xlink:href="#fbfw9jB9X" opacity="1" fill-opacity="0" stroke="#000000" stroke-width="1" stroke-opacity="0"></use></g></g><g><use xlink:href="#d1E1LSVVg" opacity="1" fill="#000000" fill-opacity="0"></use><g><use xlink:href="#d1E1LSVVg" opacity="1" fill-opacity="0" stroke="#70abaf" stroke-width="1" stroke-opacity="0.3"></use></g></g><g><use xlink:href="#aVss90vKa" opacity="1" fill="#000000" fill-opacity="0"></use><g><use xlink:href="#aVss90vKa" opacity="1" fill-opacity="0" stroke="#000000" stroke-width="1" stroke-opacity="0"></use></g></g><g><use xlink:href="#d4tkYT1TA5" opacity="1" fill="#000000" fill-opacity="0"></use><g><use xlink:href="#d4tkYT1TA5" opacity="1" fill-opacity="0" stroke="#70abaf" stroke-width="1" stroke-opacity="0.3"></use></g></g><g><use xlink:href="#e1Q1b05urV" opacity="1" fill="#000000" fill-opacity="0"></use><g><use xlink:href="#e1Q1b05urV" opacity="1" fill-opacity="0" stroke="#000000" stroke-width="1" stroke-opacity="0"></use></g></g><g><use xlink:href="#e7ecBdn7s" opacity="1" fill="#000000" fill-opacity="0"></use><g><use xlink:href="#e7ecBdn7s" opacity="1" fill-opacity="0" stroke="#70abaf" stroke-width="1" stroke-opacity="0.3"></use></g></g><g><use xlink:href="#c4IyapW7N5" opacity="1" fill="#000000" fill-opacity="0"></use><g><use xlink:href="#c4IyapW7N5" opacity="1" fill-opacity="0" stroke="#000000" stroke-width="1" stroke-opacity="0"></use></g></g><g><use xlink:href="#bdNfpDKrj" opacity="1" fill="#000000" fill-opacity="0"></use><g><use xlink:href="#bdNfpDKrj" opacity="1" fill-opacity="0" stroke="#000000" stroke-width="1" stroke-opacity="0"></use></g></g><g><use xlink:href="#eaTmd21jc" opacity="1" fill="#000000" fill-opacity="0"></use><g><use xlink:href="#eaTmd21jc" opacity="1" fill-opacity="0" stroke="#70abaf" stroke-width="1" stroke-opacity="0.3"></use></g></g><g><use xlink:href="#l42oOnphcr" opacity="1" fill="#000000" fill-opacity="0"></use><g><use xlink:href="#l42oOnphcr" opacity="1" fill-opacity="0" stroke="#000000" stroke-width="1" stroke-opacity="0"></use></g></g><g><use xlink:href="#ajBKCnUNN" opacity="1" fill="#000000" fill-opacity="0"></use><g><use xlink:href="#ajBKCnUNN" opacity="1" fill-opacity="0" stroke="#70abaf" stroke-width="1" stroke-opacity="0.3"></use></g></g><g><use xlink:href="#a23ZWnx8je" opacity="1" fill="#000000" fill-opacity="0"></use><g><use xlink:href="#a23ZWnx8je" opacity="1" fill-opacity="0" stroke="#70abaf" stroke-width="1" stroke-opacity="0.3"></use></g></g></g></g></svg>